<?xml version="1.0" standalone="no"?>
<!DOCTYPE svg PUBLIC "-//W3C//DTD SVG 20010904//EN"
 "http://www.w3.org/TR/2001/REC-SVG-20010904/DTD/svg10.dtd">
<svg version="1.0" xmlns="http://www.w3.org/2000/svg"
 width="768.000000pt" height="768.000000pt" viewBox="0 0 768.000000 768.000000"
 preserveAspectRatio="xMidYMid meet">
<metadata>
Created by potrace 1.14, written by Peter Selinger 2001-2017
</metadata>
<g transform="translate(0.000000,768.000000) scale(0.100000,-0.100000)"
fill="#000000" stroke="none">
<path d="M3842 7669 c-23 -4 -59 -10 -80 -12 -20 -2 -44 -7 -52 -10 -16 -6
-64 -18 -92 -23 -37 -7 -222 -85 -286 -120 -147 -80 -294 -199 -394 -319 -32
-38 -65 -77 -72 -85 -41 -46 -130 -205 -170 -305 -16 -38 -32 -79 -37 -90 -9
-22 -182 -554 -185 -570 -1 -5 -20 -64 -42 -130 -22 -66 -82 -248 -132 -405
-51 -157 -104 -316 -117 -355 -14 -38 -26 -78 -28 -88 -2 -9 -6 -21 -9 -25 -3
-5 -7 -19 -10 -33 -2 -13 -9 -35 -14 -49 -5 -14 -10 -28 -11 -32 -1 -4 -25
-74 -52 -155 -28 -82 -52 -155 -54 -164 -4 -18 -133 -416 -143 -439 -3 -8 -7
-19 -7 -25 -1 -5 -5 -17 -8 -25 -13 -34 -48 -140 -52 -157 -2 -10 -24 -78 -49
-151 -25 -73 -46 -136 -47 -140 -2 -9 -3 -11 -29 -97 -12 -38 -28 -86 -35
-105 -7 -19 -29 -84 -48 -145 -20 -60 -88 -272 -153 -470 -65 -198 -119 -366
-120 -373 -1 -8 -6 -21 -10 -30 -4 -9 -8 -20 -9 -24 -2 -5 -3 -9 -5 -10 -1 -2
-3 -10 -5 -18 -1 -8 -13 -44 -25 -80 -12 -36 -23 -72 -25 -80 -2 -8 -11 -37
-21 -65 -25 -74 -27 -80 -29 -85 0 -3 -25 -79 -55 -170 -30 -91 -55 -168 -56
-172 -1 -5 -3 -10 -4 -13 -1 -3 -4 -9 -5 -15 -1 -5 -4 -12 -5 -15 -1 -3 -3 -8
-5 -12 -1 -5 -4 -15 -7 -23 -4 -8 -26 -78 -51 -155 -115 -358 -259 -801 -264
-815 -4 -8 -7 -18 -8 -22 -2 -5 -3 -9 -5 -10 -1 -2 -3 -10 -5 -18 -2 -8 -20
-64 -40 -125 -20 -60 -38 -117 -40 -125 -2 -8 -36 -112 -75 -230 -39 -118 -73
-222 -75 -230 -2 -13 54 -15 469 -14 259 1 476 2 483 3 9 1 58 127 69 176 1 6
9 29 18 53 8 23 16 46 17 50 3 15 7 27 15 47 4 11 8 25 9 30 2 6 37 114 79
241 42 126 76 235 76 242 0 7 4 20 9 30 6 9 17 42 26 72 9 30 19 62 22 70 3 8
7 20 9 25 1 6 32 100 69 210 36 110 68 207 70 215 2 8 9 29 15 45 6 17 13 37
15 45 3 16 142 444 152 470 4 8 7 17 8 20 2 11 27 86 32 100 3 8 7 20 8 26 2
6 40 123 85 260 45 137 83 256 85 264 2 8 4 15 5 15 1 0 3 7 5 15 2 8 8 29 14
45 24 67 72 211 76 225 7 31 58 188 81 250 13 36 24 71 24 77 0 6 5 24 12 40
6 15 12 33 13 38 2 6 27 82 56 170 29 88 54 165 55 170 3 15 144 447 154 470
4 11 29 88 56 170 26 83 67 211 92 285 24 74 46 142 48 150 3 15 54 169 75
225 6 17 12 35 13 40 2 6 5 17 8 25 3 8 29 89 58 180 28 91 55 174 60 185 7
17 132 400 135 415 0 3 9 30 20 60 10 30 20 60 21 65 1 6 29 92 62 192 38 117
74 207 100 250 119 198 316 319 542 330 61 3 182 4 260 2 8 0 67 0 130 0 63 0
123 1 133 1 9 -1 46 0 81 1 35 1 69 -2 75 -5 6 -4 11 -4 11 1 0 4 21 7 47 6
49 -2 63 -2 260 -3 62 0 116 0 120 -1 4 -1 13 0 18 1 6 1 84 1 175 0 168 -1
180 -1 203 1 57 6 240 -22 280 -43 10 -5 27 -11 37 -13 43 -8 149 -80 206
-140 83 -86 127 -177 148 -305 17 -104 12 -201 -13 -288 -5 -18 -11 -36 -12
-40 -8 -33 -70 -227 -79 -247 -10 -25 -71 -214 -75 -235 -2 -8 -21 -68 -43
-132 -23 -65 -38 -118 -35 -118 3 0 0 -6 -6 -13 -6 -8 -8 -17 -4 -20 3 -4 2
-7 -4 -7 -5 0 -10 -6 -10 -12 0 -11 -62 -210 -80 -258 -3 -8 -7 -19 -9 -25 -1
-5 -9 -29 -18 -53 -8 -23 -16 -46 -17 -50 -2 -9 -2 -9 -42 -132 -18 -58 -54
-167 -78 -242 l-44 -138 -483 1 -483 1 7 31 c3 18 9 37 13 42 3 6 6 12 7 15 3
19 26 99 34 115 5 11 14 38 20 60 6 22 15 49 20 60 5 11 43 126 85 255 42 129
79 242 82 250 3 8 7 20 8 25 2 9 273 836 282 860 2 7 -125 11 -367 12 -203 1
-374 4 -379 7 -5 4 -12 2 -16 -3 -3 -6 -14 -7 -25 -3 -10 4 -56 6 -102 4 l-83
-3 -80 -242 c-44 -133 -80 -246 -82 -252 -2 -10 -48 -148 -84 -250 -11 -33
-27 -82 -35 -110 -8 -27 -19 -59 -24 -70 -13 -31 -63 -188 -63 -202 0 -7 -4
-13 -9 -13 -4 0 -8 -7 -8 -15 0 -8 -27 -96 -61 -197 -33 -101 -61 -187 -62
-193 -2 -5 -5 -14 -9 -20 -3 -5 -9 -26 -13 -45 -4 -19 -10 -39 -14 -45 -3 -5
-6 -12 -7 -15 0 -3 -3 -12 -7 -20 -8 -22 -199 -603 -201 -615 -5 -24 -29 -91
-36 -100 -5 -5 -8 -13 -8 -18 0 -4 -12 -46 -27 -93 -15 -47 -24 -88 -22 -91 7
-6 1985 -4 2037 2 19 2 44 6 55 8 11 3 40 8 65 12 102 17 323 96 382 137 14
10 29 18 33 18 6 0 106 62 128 80 114 91 152 125 207 182 69 73 142 163 140
174 -1 4 3 10 8 13 10 6 102 158 102 168 0 4 11 29 24 57 19 39 144 399 160
461 2 6 6 24 11 40 4 17 11 35 16 40 4 6 8 15 9 20 3 28 14 61 23 73 5 6 7 12
4 12 -3 0 8 39 25 88 16 48 31 94 33 102 2 8 17 56 35 105 17 50 33 97 35 105
1 8 17 58 34 110 17 52 31 100 32 105 0 6 5 16 11 23 6 6 7 12 3 12 -4 0 -3 6
3 13 6 7 13 24 16 37 2 14 19 68 36 120 34 105 46 150 54 195 3 17 8 41 11 55
15 74 19 130 19 275 1 88 -3 180 -8 205 -4 25 -9 56 -11 70 -1 14 -5 32 -8 40
-3 8 -11 35 -17 60 -19 76 -60 180 -109 273 -71 136 -72 138 -155 241 -50 62
-176 192 -176 182 0 -3 -10 5 -23 17 -34 32 -76 67 -82 67 -3 0 -29 16 -57 36
-29 19 -86 51 -127 70 -42 20 -87 41 -101 48 -55 29 -239 78 -380 102 -62 11
-2095 14 -2148 3z"/>
</g>
</svg>
