<svg width="32" height="32" viewBox="0 0 32 32" fill="none" xmlns="http://www.w3.org/2000/svg">
<path d="M27.1135 6.30552C26.9445 6.13752 26.7455 6.05302 26.5155 6.05302C26.401 6.05302 26.1595 6.14702 25.7925 6.33252C25.425 6.51852 25.035 6.72552 24.6245 6.95652C24.213 7.18602 23.726 7.39402 23.164 7.58002C22.6025 7.76552 22.0825 7.85952 21.604 7.85952C21.162 7.85952 20.772 7.77552 20.436 7.60702C19.3215 7.08502 18.352 6.69552 17.529 6.43852C16.706 6.18202 15.821 6.05302 14.8735 6.05302C13.2375 6.05302 11.374 6.58502 9.285 7.64702C8.854 7.86202 8.545 8.02852 8.345 8.15052L8.1465 6.69502C8.595 6.30552 8.8845 5.73802 8.8845 5.09752C8.8845 3.92402 7.9335 2.97302 6.76 2.97302C5.5865 2.97302 4.6355 3.92402 4.6355 5.09752C4.6355 5.86302 5.0445 6.52852 5.6515 6.90252L8.5215 27.9475C8.607 28.574 9.143 29.0285 9.7585 29.0285C9.8145 29.0285 9.8715 29.025 9.929 29.0175C10.613 28.9235 11.092 28.294 10.9985 27.61L9.845 19.1515C11.938 18.113 13.7485 17.5895 15.2715 17.5895C15.918 17.5895 16.5485 17.686 17.163 17.881C17.778 18.0765 18.2895 18.2885 18.6965 18.518C19.1035 18.748 19.584 18.961 20.1365 19.155C20.69 19.35 21.2365 19.4475 21.776 19.4475C23.139 19.4475 24.7715 18.934 26.674 17.9075C26.913 17.7835 27.088 17.6615 27.1985 17.542C27.309 17.4225 27.3645 17.2525 27.3645 17.0315V6.90302C27.3645 6.67352 27.281 6.47402 27.1135 6.30552Z" fill="#F0145A"/>
</svg>
