<svg width="32" height="33" viewBox="0 0 32 33" fill="none" xmlns="http://www.w3.org/2000/svg">
<path fill-rule="evenodd" clip-rule="evenodd" d="M4.95269 31.7711H0.000488281C0.000488281 31.7711 6.37358 12.1548 8.47989 5.67429C9.46534 2.64223 12.2904 0.589355 15.478 0.589355H24.3314C27.0013 0.589355 29.2295 1.7171 30.6149 3.62278C31.9993 5.52856 32.3921 7.96707 31.5847 10.4547C30.7764 12.9424 30.0128 15.2907 29.3138 17.4423C28.3701 20.3475 25.7554 22.3494 22.7324 22.5122C22.7324 22.5122 22.7168 22.5071 26.9523 9.47045C27.3263 8.32 27.1898 7.19392 26.6023 6.38629C26.0158 5.57877 25.0262 5.10084 23.7168 5.10084H16.1197C14.628 5.10084 13.3061 6.06149 12.8446 7.48039L4.95269 31.7711Z" fill="#F0145A"/>
<path fill-rule="evenodd" clip-rule="evenodd" d="M22.7321 22.5118H12.7505L17.1486 9.13574L22.1243 9.16515L19.2351 17.9865L24.196 17.9895L22.7321 22.5118Z" fill="url(#paint0_linear)"/>
<defs>
<linearGradient id="paint0_linear" x1="12.7498" y1="19.9498" x2="23.8533" y2="25.7533" gradientUnits="userSpaceOnUse">
<stop stop-color="#F0145A"/>
<stop offset="1" stop-color="#693264"/>
</linearGradient>
</defs>
</svg>
