<svg width="156" height="63" viewBox="0 0 156 63" fill="none" xmlns="http://www.w3.org/2000/svg">
<path d="M11.3034 57.5913C11.3034 56.4799 10.922 55.5429 10.1702 54.7692C9.41839 53.9956 8.50312 53.6143 7.43531 53.6143C6.46556 53.6143 5.62656 53.9193 4.91831 54.5404C4.22097 55.1506 3.78512 55.8915 3.62168 56.7741H2.58656V53.7777H0.952148V61.4049H2.58656V58.2996H3.62168C3.78512 59.2257 4.22097 60.0102 4.91831 60.6313C5.61566 61.2524 6.45466 61.5684 7.43531 61.5684C8.50312 61.5684 9.41839 61.187 10.1702 60.4134C10.922 59.6507 11.3034 58.7027 11.3034 57.5913ZM9.669 57.5913C9.669 58.3105 9.45108 58.9097 9.01523 59.3783C8.5685 59.8577 8.04548 60.0974 7.43531 60.0974C6.82513 60.0974 6.30211 59.8577 5.86627 59.3783C5.41953 58.9097 5.20161 58.3105 5.20161 57.5913C5.20161 56.8722 5.41953 56.2729 5.86627 55.7935C6.30211 55.3249 6.82513 55.0852 7.43531 55.0852C8.04548 55.0852 8.5685 55.3249 9.01523 55.7935C9.45108 56.2729 9.669 56.8722 9.669 57.5913Z" fill="#46466E"/>
<path d="M13.9121 53.7783V61.4056H15.5465V58.8995H17.1264C17.911 58.8995 18.5647 58.6489 19.0768 58.1585C19.589 57.6682 19.8505 57.058 19.8505 56.3389C19.8505 55.6089 19.589 55.0096 19.0768 54.5084C18.5538 54.018 17.911 53.7783 17.1264 53.7783H13.9121ZM17.072 55.2493C17.3988 55.2493 17.6712 55.3582 17.8892 55.5653C18.1071 55.7723 18.2161 56.0338 18.2161 56.3389C18.2161 56.644 18.1071 56.9055 17.8892 57.1125C17.6712 57.3195 17.3988 57.4285 17.072 57.4285H15.5465V55.2493H17.072Z" fill="#46466E"/>
<path d="M29.2143 61.4056V53.7783H27.7978L24.0387 58.6271V53.7783H22.4043V61.4056H23.8208L27.5799 56.5568V61.4056H29.2143Z" fill="#46466E"/>
<path d="M31.2764 59.9346V62.9855H32.9108V61.4056H37.4871V62.9855H39.1215V59.9346H38.1954V53.7783H32.9108V56.121C32.9108 56.6331 32.8672 57.1125 32.78 57.5593C32.6929 58.0169 32.5948 58.3765 32.4967 58.6489C32.3878 58.9104 32.2679 59.1501 32.1263 59.3789C31.9846 59.5968 31.8974 59.7385 31.843 59.8038C31.7776 59.8583 31.7449 59.9128 31.7122 59.9346H31.2764ZM34.5452 56.121V55.2493H36.561V59.9346H33.3466L33.4774 59.8038C33.5536 59.7167 33.6517 59.575 33.7716 59.368C33.8914 59.161 34.0004 58.9213 34.1202 58.6489C34.2401 58.3765 34.3382 58.006 34.4144 57.5593C34.5016 57.1125 34.5452 56.6331 34.5452 56.121Z" fill="#46466E"/>
<path d="M48.2632 61.4056V53.7783H46.8467L43.0875 58.6271V53.7783H41.4531V61.4056H42.8696L46.6288 56.5568V61.4056H48.2632Z" fill="#46466E"/>
<path d="M52.8336 53.7783H51.1992V56.121C51.1992 57.0362 51.4389 57.7445 51.9184 58.2457C52.4087 58.7578 53.0733 59.0084 53.9232 59.0084C54.6533 59.0084 55.2526 58.8668 55.7211 58.5726V61.4056H57.3555V53.7783H55.7211V56.9927L55.5359 57.1343C55.416 57.2215 55.2308 57.3086 54.9802 57.4067C54.7295 57.4939 54.468 57.5375 54.1956 57.5375C53.7598 57.5375 53.422 57.4176 53.1823 57.1779C52.9535 56.9273 52.8336 56.5786 52.8336 56.121V53.7783Z" fill="#46466E"/>
<path d="M66.938 53.7783H65.3036V56.8292H62.0348V53.7783H60.4004V61.4056H62.0348V58.3002H65.3036V61.4056H66.938V53.7783Z" fill="#46466E"/>
<path d="M73.9066 58.1912H72.0542L72.9804 55.6851L73.9066 58.1912ZM74.4514 59.6077L75.1051 61.4056H76.8485L73.8521 53.7783H72.1087L69.1123 61.4056H70.8557L71.5094 59.6077H74.4514Z" fill="#46466E"/>
<path d="M83.9743 53.7783H82.3398V61.4056H83.9743V59.2263L84.9549 58.1367L87.1886 61.4056H89.0954L86.0445 56.9382L88.8775 53.7783H86.9707L83.9743 57.1016V53.7783Z" fill="#46466E"/>
<path d="M92.4135 57.5913C92.4135 56.894 92.6532 56.2947 93.1326 55.8153C93.6012 55.3249 94.1787 55.0852 94.8651 55.0852C95.5516 55.0852 96.1291 55.3249 96.5976 55.8153C97.077 56.2947 97.3167 56.894 97.3167 57.5913C97.3167 58.2996 97.077 58.888 96.5976 59.3674C96.1291 59.8577 95.5516 60.0974 94.8651 60.0974C94.1787 60.0974 93.6012 59.8577 93.1326 59.3674C92.6532 58.888 92.4135 58.2996 92.4135 57.5913ZM90.7246 57.5913C90.7246 58.6809 91.1278 59.6289 91.9232 60.4025C92.7186 61.1761 93.6992 61.5684 94.8651 61.5684C96.031 61.5684 97.0116 61.1761 97.807 60.4025C98.6025 59.6289 99.0056 58.6809 99.0056 57.5913C99.0056 56.4908 98.6025 55.5538 97.807 54.7801C97.0116 54.0065 96.031 53.6143 94.8651 53.6143C93.6992 53.6143 92.7186 54.0065 91.9232 54.7801C91.1278 55.5538 90.7246 56.4908 90.7246 57.5913Z" fill="#46466E"/>
<path d="M105.7 57.1016L103.085 53.7783H101.614V61.4056H103.249V56.3389L105.7 59.4443L108.152 56.3171V61.4056H109.786V53.7783H108.337L105.7 57.1016Z" fill="#46466E"/>
<path d="M119.311 53.7783H112.828V61.4056H114.463V55.2493H117.677V61.4056H119.311V53.7783Z" fill="#46466E"/>
<path d="M126.282 58.1912H124.429L125.355 55.6851L126.282 58.1912ZM126.826 59.6077L127.48 61.4056H129.223L126.227 53.7783H124.484L121.487 61.4056H123.231L123.884 59.6077H126.826Z" fill="#46466E"/>
<path d="M137.935 53.7783H136.301V56.8292H133.032V53.7783H131.397V61.4056H133.032V58.3002H136.301V61.4056H137.935V53.7783Z" fill="#46466E"/>
<path d="M142.614 53.7783H140.979V61.4056H142.614V53.7783Z" fill="#46466E"/>
<path d="M151.325 53.7783H147.947C147.184 53.7783 146.563 54.018 146.073 54.4975C145.583 54.9769 145.332 55.5762 145.332 56.2844C145.332 56.5895 145.386 56.8728 145.474 57.1452C145.572 57.4176 145.681 57.6246 145.811 57.7772C145.931 57.9297 146.062 58.0714 146.225 58.2021C146.378 58.3329 146.487 58.42 146.552 58.4527C146.607 58.4745 146.661 58.5072 146.694 58.5181L145.06 61.4056H146.803L148.274 58.736H149.69V61.4056H151.325V53.7783ZM146.966 56.2844C146.966 55.9793 147.064 55.7396 147.261 55.5435C147.457 55.3474 147.707 55.2493 148.002 55.2493H149.69V57.2651H148.002C147.707 57.2651 147.457 57.167 147.261 56.9818C147.064 56.7965 146.966 56.5568 146.966 56.2844Z" fill="#46466E"/>
<path d="M5.93328 0.5H0.952148V36.4749H5.93328V23.1286C5.93328 20.8707 6.49488 19.0895 7.61807 17.8352C8.74127 16.5808 10.2796 15.9286 12.1841 15.9286C13.8201 15.9286 15.1874 16.5307 16.2862 17.6847C17.385 18.8638 17.9466 20.3439 17.9466 22.1251V36.5H22.9521V22.1251C22.9521 18.8136 22.0487 16.2045 20.2418 14.2477C18.4349 12.2909 16.0665 11.3125 13.1852 11.3125C12.355 11.3125 11.5248 11.4129 10.7191 11.6387C9.88889 11.8645 9.22962 12.1153 8.69244 12.3913C8.15526 12.6672 7.64249 12.9683 7.17856 13.3195C6.71463 13.6707 6.39721 13.9216 6.25071 14.0721C6.1042 14.2226 5.98211 14.323 5.93328 14.3983V0.5Z" fill="#F0145A"/>
<path d="M34.0872 0.5H28.9521V36.445H34.0872V0.5Z" fill="#323264"/>
<path d="M64.3747 25.918L64.6314 23.3505C64.6314 19.91 63.5017 17.0344 61.191 14.7237C58.8802 12.4129 56.0046 11.2832 52.5642 11.2832C49.1237 11.2832 46.1454 12.5156 43.6806 14.9804C41.2158 17.4452 39.9834 20.3722 39.9834 23.864C39.9834 27.4585 41.2671 30.5395 43.7833 33.107C46.2995 35.6745 49.3291 36.9582 52.8209 36.9582C54.156 36.9582 55.3884 36.7528 56.6208 36.3934C57.8532 35.9826 58.8802 35.5718 59.5991 35.161C60.3694 34.6988 61.1396 34.1853 61.8072 33.6205C62.4747 33.0556 62.9369 32.6448 63.1423 32.3881C63.3477 32.1313 63.5017 31.9773 63.6044 31.8232L60.2667 28.4855L59.4964 29.4611C58.9829 30.0773 58.11 30.6935 56.8776 31.3611C55.5938 32.0286 54.2587 32.3367 52.8209 32.3367C50.8183 32.3367 49.1237 31.7205 47.6859 30.4368C46.2481 29.153 45.3752 27.6639 45.1184 25.918H64.3747ZM52.5642 15.648C54.4641 15.648 56.0046 16.2128 57.2884 17.2912C58.5208 18.4209 59.291 19.8073 59.5991 21.5532H45.3238C45.786 19.8073 46.6076 18.4209 47.8913 17.2912C49.1237 16.2128 50.7156 15.648 52.5642 15.648Z" fill="#323264"/>
<path d="M88.3237 34.9556C88.3237 37.215 87.6562 39.0636 86.2697 40.5014C84.9346 41.8878 83.2401 42.6067 81.1347 42.6067C80.2104 42.6067 79.2861 42.4527 78.4132 42.1959C77.5402 41.9392 76.8727 41.6311 76.3078 41.2716C75.743 40.9122 75.2295 40.5527 74.716 40.0906C74.2538 39.6284 73.9457 39.3203 73.7917 39.1663C73.6376 39.0122 73.5349 38.8582 73.4322 38.7555L70.0945 42.0932L70.5053 42.6067C70.762 42.9662 71.2242 43.4283 71.8404 43.9418C72.4566 44.404 73.1755 44.9175 73.9971 45.431C74.8187 45.8931 75.8457 46.3039 77.1294 46.6634C78.4132 47.0228 79.7483 47.2282 81.1347 47.2282C84.6265 47.2282 87.5021 46.0472 89.9156 43.6851C92.2777 41.2716 93.4587 38.396 93.4587 34.9042V11.7967H88.3237V14.3642L87.4508 13.594C86.8859 13.0805 86.013 12.567 84.7806 12.0535C83.5482 11.54 82.2131 11.2832 80.878 11.2832C77.7456 11.2832 75.0754 12.4643 72.7647 14.8777C70.4539 17.2912 69.3242 20.1668 69.3242 23.6072C69.3242 27.0477 70.4539 29.9233 72.7647 32.3367C75.0754 34.7502 77.7456 35.9312 80.878 35.9312C81.7509 35.9312 82.5725 35.8285 83.4455 35.6231C84.2671 35.3664 84.9346 35.1096 85.4995 34.8529C86.0643 34.5961 86.5778 34.288 87.04 33.9286C87.5021 33.5691 87.8616 33.3124 87.9643 33.2097L88.3237 32.8502V34.9556ZM74.4592 23.6072C74.4592 21.4505 75.1268 19.6533 76.5132 18.1641C77.8997 16.675 79.5429 15.9047 81.3915 15.9047C83.2401 15.9047 84.8833 16.675 86.2697 18.1641C87.6048 19.6533 88.3237 21.4505 88.3237 23.6072C88.3237 25.7639 87.6048 27.5612 86.2697 29.0503C84.8833 30.5395 83.2401 31.3097 81.3915 31.3097C79.5429 31.3097 77.8997 30.5395 76.5132 29.0503C75.1268 27.5612 74.4592 25.7639 74.4592 23.6072Z" fill="#323264"/>
<path d="M120.26 36.4447V20.5262C120.26 17.9074 119.285 15.6993 117.385 13.9534C115.485 12.1562 113.02 11.2832 109.99 11.2832C108.809 11.2832 107.628 11.4373 106.499 11.7454C105.369 12.1048 104.445 12.4643 103.777 12.8751C103.11 13.2859 102.442 13.748 101.826 14.3129C101.21 14.8264 100.85 15.1858 100.645 15.3912C100.491 15.5966 100.337 15.7507 100.234 15.9047L103.572 19.2425L104.239 18.3695C104.65 17.8047 105.369 17.2912 106.447 16.7263C107.526 16.1615 108.707 15.9047 109.99 15.9047C111.48 15.9047 112.712 16.3669 113.688 17.2398C114.663 18.1128 115.125 19.2425 115.125 20.5262L106.139 22.0667C103.931 22.4262 102.134 23.2991 100.901 24.6856C99.6177 26.072 98.9502 27.7666 98.9502 29.7692C98.9502 31.6692 99.7718 33.3124 101.415 34.7502C103.11 36.2393 105.164 36.9582 107.68 36.9582C108.553 36.9582 109.374 36.8555 110.196 36.5988C111.069 36.3934 111.736 36.1366 112.301 35.8799C112.866 35.6231 113.38 35.315 113.842 34.9556C114.304 34.5961 114.612 34.3394 114.817 34.2367C114.971 34.0826 115.074 33.9286 115.125 33.8772V36.4447H120.26ZM108.45 32.3367C107.115 32.3367 106.037 32.0286 105.266 31.4124C104.445 30.7962 104.085 30.0773 104.085 29.2557C104.085 28.3828 104.342 27.6125 104.907 27.0477C105.472 26.4828 106.242 26.072 107.166 25.918L115.125 24.6342V25.1477C115.125 27.4585 114.561 29.2044 113.38 30.4881C112.199 31.7205 110.555 32.3367 108.45 32.3367Z" fill="#323264"/>
<path d="M131.592 0.5H126.457V36.445H131.592V0.5Z" fill="#323264"/>
<path d="M154.941 14.621L154.633 14.2615C154.428 14.0561 154.12 13.7994 153.658 13.4399C153.195 13.0805 152.682 12.7724 152.117 12.4129C151.552 12.1048 150.782 11.8481 149.858 11.5913C148.933 11.3859 147.958 11.2832 146.982 11.2832C144.466 11.2832 142.412 12.0021 140.769 13.4399C139.074 14.9291 138.253 16.5723 138.253 18.4722C138.253 19.8587 138.561 20.9884 139.177 22.0154C139.793 22.991 140.563 23.7099 141.539 24.1207C142.463 24.5829 143.49 25.045 144.569 25.4045C145.647 25.7639 146.623 26.072 147.598 26.3288C148.523 26.6369 149.293 26.9963 149.909 27.4585C150.525 27.9206 150.833 28.5368 150.833 29.2557C150.833 30.18 150.474 30.9503 149.806 31.5151C149.139 32.0286 148.112 32.3367 146.725 32.3367C145.596 32.3367 144.466 32.0286 143.388 31.5151C142.309 30.9503 141.642 30.4881 141.282 30.1287C140.974 29.7692 140.717 29.4611 140.563 29.2557L137.226 32.5935L137.585 33.0556C137.842 33.3637 138.201 33.7232 138.715 34.134C139.28 34.5961 139.896 35.0069 140.563 35.4177C141.282 35.8285 142.207 36.188 143.285 36.4961C144.363 36.8042 145.544 36.9582 146.725 36.9582C149.447 36.9582 151.706 36.188 153.401 34.6988C155.095 33.2097 155.968 31.3611 155.968 29.2557C155.968 27.8693 155.66 26.6882 155.044 25.7639C154.428 24.7883 153.658 24.0694 152.682 23.6072C151.758 23.0937 150.731 22.6829 149.652 22.3235C148.574 21.964 147.598 21.6046 146.623 21.3992C145.698 21.1424 144.928 20.7316 144.312 20.2695C143.696 19.8073 143.388 19.1911 143.388 18.4722C143.388 17.8047 143.696 17.1885 144.363 16.675C144.979 16.1615 145.852 15.9047 146.982 15.9047C147.804 15.9047 148.625 16.1101 149.396 16.4696C150.217 16.829 150.782 17.1371 151.039 17.3939C151.296 17.6506 151.501 17.856 151.604 17.9587L154.941 14.621Z" fill="#323264"/>
</svg>
