<svg width="40" height="39" viewBox="0 0 40 39" fill="none" xmlns="http://www.w3.org/2000/svg">
<path d="M27.1468 10.0048C27.7806 10.5959 28.8076 10.5975 29.4414 10.0048L31.6996 7.89869C32.3325 7.30756 32.3308 6.3498 31.6996 5.75786L25.9996 0.443347C25.3675 -0.147782 24.3406 -0.147782 23.7067 0.443347L21.4477 2.54945C20.8156 3.14058 20.8156 4.09834 21.4477 4.68785L27.1468 10.0048Z" fill="url(#paint0_linear)"/>
<path d="M13.6522 22.8271C14.2852 23.4158 15.3121 23.4158 15.9451 22.8271L18.2041 20.7194C18.8379 20.1299 18.8379 19.1713 18.2041 18.5802L12.5041 13.264C11.8712 12.6745 10.8442 12.6729 10.2104 13.264L7.95225 15.3701C7.31844 15.9613 7.32017 16.919 7.95225 17.5102L13.6522 22.8271Z" fill="url(#paint1_linear)"/>
<path d="M39.5246 23.3324L37.2326 21.1924C36.5971 20.6029 35.5728 20.6029 34.9398 21.1924L33.9345 22.1292L24.2325 13.079L26.334 11.1182L20.5041 5.68262L18.4018 7.64335L15.7245 10.1387L13.6689 12.0558L19.498 17.493L21.5561 15.5767L31.2564 24.6253L30.349 25.4725C29.7152 26.0612 29.7134 27.0197 30.349 27.6108L32.6409 29.7492C33.2765 30.342 34.3025 30.342 34.9355 29.7492L39.5237 25.4716C40.1584 24.8797 40.1584 23.9236 39.5246 23.3324Z" fill="url(#paint2_linear)"/>
<path d="M22.5792 29.8327C22.5792 28.8644 21.7376 28.0779 20.6977 28.0779H6.00565C4.96661 28.0779 4.12412 28.8644 4.12412 29.8327V32.6809H0V38.648H26.4591V32.6809H22.5792V29.8327Z" fill="url(#paint3_linear)"/>
<defs>
<linearGradient id="paint0_linear" x1="26.5736" y1="0" x2="26.5736" y2="10.4487" gradientUnits="userSpaceOnUse">
<stop stop-color="#EF8080"/>
<stop offset="1" stop-color="#F0145A"/>
</linearGradient>
<linearGradient id="paint1_linear" x1="13.0785" y1="12.8213" x2="13.0785" y2="23.2686" gradientUnits="userSpaceOnUse">
<stop stop-color="#EF8080"/>
<stop offset="1" stop-color="#F0145A"/>
</linearGradient>
<linearGradient id="paint2_linear" x1="26.8344" y1="5.68262" x2="26.8344" y2="30.1938" gradientUnits="userSpaceOnUse">
<stop stop-color="#EF8080"/>
<stop offset="1" stop-color="#F0145A"/>
</linearGradient>
<linearGradient id="paint3_linear" x1="13.2296" y1="28.0779" x2="13.2296" y2="38.648" gradientUnits="userSpaceOnUse">
<stop stop-color="#EF8080"/>
<stop offset="1" stop-color="#F0145A"/>
</linearGradient>
</defs>
</svg>
