<svg width="64" height="64" viewBox="0 0 64 64" fill="none" xmlns="http://www.w3.org/2000/svg">
<path d="M41.2322 37.6965C43.5843 37.6965 45.9101 38.2849 47.9581 39.3979C48.3301 39.5984 48.6714 39.8372 49.0199 40.0672C52.3811 33.4873 54.155 26.5283 54.155 19.7393C54.155 19.3578 54.155 18.9639 54.1428 18.5701C54.1182 18.0163 53.7243 17.5362 53.1704 17.4132C45.7366 15.7886 39.0043 11.7639 33.712 5.78242L32.9243 4.8839C32.6904 4.61317 32.3582 4.46548 32.0012 4.46548C31.6197 4.41628 31.3243 4.60085 31.0904 4.85934L29.8843 6.18859C24.8627 11.7147 18.5366 15.5301 11.5951 17.2286L10.7951 17.4254C10.2535 17.5486 9.87199 18.0286 9.85967 18.5824C9.41661 35.887 19.632 48.3301 24.0382 52.8839C25.2311 54.1087 26.5611 55.3261 27.8258 56.3324C27.3514 54.9016 27.0783 53.3961 27.0783 51.8504C27.0783 44.0457 33.4275 37.6965 41.2322 37.6965Z" fill="url(#paint0_linear)"/>
<path d="M46.7822 41.5608C45.0837 40.6377 43.1637 40.1577 41.2314 40.1577C34.7822 40.1577 29.5391 45.4008 29.5391 51.85C29.5391 54.0285 30.1299 56.1577 31.2622 57.9792C33.416 61.4623 37.133 63.5423 41.2314 63.5423C47.6683 63.5423 52.9237 58.2992 52.9237 51.85C52.9237 47.5423 50.5729 43.6039 46.7822 41.5608ZM47.2196 50.2932L38.0747 57.4098L34.9527 52.5264C34.5862 51.9537 34.7538 51.1929 35.3265 50.8269C35.8999 50.4603 36.6613 50.6292 37.0261 51.2007L38.6937 53.8089L45.7076 48.3509C46.243 47.9333 47.0171 48.0288 47.4347 48.5661C47.8524 49.1027 47.7556 49.8762 47.2196 50.2932Z" fill="url(#paint1_linear)"/>
<defs>
<linearGradient id="paint0_linear" x1="32.0004" y1="4.45752" x2="32.0004" y2="56.3324" gradientUnits="userSpaceOnUse">
<stop stop-color="#EF8080"/>
<stop offset="1" stop-color="#F0145A"/>
</linearGradient>
<linearGradient id="paint1_linear" x1="41.2314" y1="40.1577" x2="41.2314" y2="63.5423" gradientUnits="userSpaceOnUse">
<stop stop-color="#EF8080"/>
<stop offset="1" stop-color="#F0145A"/>
</linearGradient>
</defs>
</svg>
