<svg width="48" height="48" viewBox="0 0 48 48" fill="none" xmlns="http://www.w3.org/2000/svg">
<path d="M32.2535 12.46C32.9855 13.192 34.1715 13.194 34.9035 12.46L37.5115 9.85205C38.2425 9.12004 38.2405 7.93404 37.5115 7.20105L30.9285 0.620045C30.1985 -0.111955 29.0125 -0.111955 28.2805 0.620045L25.6715 3.22804C24.9415 3.96004 24.9415 5.14604 25.6715 5.87604L32.2535 12.46Z" fill="url(#paint0_linear)"/>
<path d="M16.6674 28.338C17.3984 29.067 18.5844 29.067 19.3154 28.338L21.9244 25.728C22.6564 24.998 22.6564 23.811 21.9244 23.079L15.3414 16.496C14.6104 15.766 13.4244 15.764 12.6924 16.496L10.0844 19.104C9.35238 19.836 9.35438 21.022 10.0844 21.754L16.6674 28.338Z" fill="url(#paint1_linear)"/>
<path d="M46.5495 28.964L43.9025 26.314C43.1685 25.584 41.9855 25.584 41.2545 26.314L40.0935 27.474L28.8885 16.267L31.3155 13.839L24.5825 7.10803L22.1545 9.53603L19.0625 12.626L16.6885 15L23.4205 21.733L25.7975 19.36L37.0005 30.565L35.9525 31.614C35.2205 32.343 35.2185 33.53 35.9525 34.262L38.5995 36.91C39.3335 37.644 40.5185 37.644 41.2495 36.91L46.5485 31.613C47.2815 30.88 47.2815 29.696 46.5495 28.964Z" fill="url(#paint2_linear)"/>
<path d="M26.9784 37.0131C26.9784 35.8141 26.0064 34.8401 24.8054 34.8401H7.83737C6.63737 34.8401 5.66437 35.8141 5.66437 37.0131V40.5401H0.901367V47.9291H31.4594V40.5401H26.9784V37.0131Z" fill="url(#paint3_linear)"/>
<defs>
<linearGradient id="paint0_linear" x1="31.5915" y1="0.0710449" x2="31.5915" y2="13.0098" gradientUnits="userSpaceOnUse">
<stop stop-color="#EF8080"/>
<stop offset="1" stop-color="#F0145A"/>
</linearGradient>
<linearGradient id="paint1_linear" x1="16.0048" y1="15.9478" x2="16.0048" y2="28.8848" gradientUnits="userSpaceOnUse">
<stop stop-color="#EF8080"/>
<stop offset="1" stop-color="#F0145A"/>
</linearGradient>
<linearGradient id="paint2_linear" x1="31.8934" y1="7.10803" x2="31.8934" y2="37.4605" gradientUnits="userSpaceOnUse">
<stop stop-color="#EF8080"/>
<stop offset="1" stop-color="#F0145A"/>
</linearGradient>
<linearGradient id="paint3_linear" x1="16.1804" y1="34.8401" x2="16.1804" y2="47.9291" gradientUnits="userSpaceOnUse">
<stop stop-color="#EF8080"/>
<stop offset="1" stop-color="#F0145A"/>
</linearGradient>
</defs>
</svg>
