<svg width="64" height="64" viewBox="0 0 64 64" fill="none" xmlns="http://www.w3.org/2000/svg">
<path d="M23.7344 28.125C24.8384 28.125 25.7344 27.229 25.7344 26.125V18.325C25.7344 14.838 28.5714 12 32.0584 12C35.5454 12 38.3834 14.838 38.3834 18.325V26.125C38.3834 27.229 39.2784 28.125 40.3834 28.125C41.4874 28.125 42.3834 27.229 42.3834 26.125V18.325C42.3844 12.632 37.7524 8 32.0584 8C26.3664 8 21.7344 12.632 21.7344 18.325V26.125C21.7344 27.229 22.6304 28.125 23.7344 28.125Z" fill="url(#paint0_linear)"/>
<path d="M55 23.631H44.384V26.125C44.384 28.331 42.59 30.125 40.384 30.125C38.178 30.125 36.384 28.331 36.384 26.125V23.631H27.735V26.125C27.735 28.331 25.941 30.125 23.735 30.125C21.529 30.125 19.735 28.331 19.735 26.125V23.631H8.99997C8.44797 23.631 8.10697 24.066 8.23797 24.602L15.236 53.099C15.658 54.701 17.344 56 19 56H45C46.658 56 48.342 54.701 48.766 53.099L55.762 24.602C55.893 24.065 55.553 23.631 55 23.631Z" fill="url(#paint1_linear)"/>
<path d="M28.6001 34.4C28.6001 33.6265 29.2266 33 30.0001 33C30.7736 33 31.4001 33.6265 31.4001 34.4V41.35L31.4001 40C31.4001 39.2265 32.0266 38.6 32.8001 38.6C33.5736 38.6 34.2001 39.2265 34.2001 40V41.6764C34.2127 40.9141 34.8346 39.3 35.6 39.3C36.3731 39.3 36.9999 39.9268 37 40.7C37 40.7 37.0411 41.7411 37.1332 41.8033C37.3572 41.3285 37.8402 40 38.4 40C39.1732 40 39.8 40.6268 39.8 41.4V48.4C39.8 49.9463 38.5463 51.2 37 51.2H32.3198C30.8344 51.2 29.4099 50.6099 28.3599 49.5599L26.15 47.35L23 45.9402C23.0051 44.6033 24.0526 44.2 25.1 44.2C26.0023 44.2 26.8136 44.3407 28.6 45.25L28.6001 34.4Z" fill="white"/>
<path d="M38.7137 41.9765C38.4293 40.3009 37.2227 40.0727 36.7037 40.054C36.5568 40.0477 36.4224 39.9727 36.3443 39.8477C35.9504 39.2287 35.419 39.0662 34.9657 39.0662C34.7594 39.0662 34.5687 39.1006 34.4187 39.1381C34.3749 39.1506 34.328 39.1568 34.2842 39.1568C34.1248 39.1568 33.9716 39.0849 33.8747 38.9505C33.4871 38.416 32.9838 38.269 32.5493 38.269C32.4337 38.269 32.3243 38.2816 32.2211 38.2972C32.1961 38.3003 32.168 38.3034 32.1429 38.3034C31.8647 38.3034 31.6303 38.0784 31.6303 37.7908L31.6272 34.6929C31.6272 33.8927 31.027 33.4926 30.4268 33.4926C29.8235 33.4926 29.2233 33.8958 29.2233 34.6961C29.2264 36.0402 29.2295 40.079 29.2327 41.2981C29.2327 41.5013 29.1076 41.6889 28.9201 41.767C26.5349 42.7642 29.4796 47.2343 30.0048 48.0002C30.0579 48.0721 30.0892 48.1596 30.0954 48.2503L30.2236 49.9977C30.2455 50.2665 30.4674 50.5072 30.7363 50.5072L36.4943 50.4666C36.7506 50.4666 36.9695 50.2572 37.0007 50.004L37.2352 48.2097C37.2445 48.1315 37.2727 48.0565 37.3133 47.9908C38.8544 45.612 38.9732 43.5269 38.7137 41.9765Z" fill="white"/>
<defs>
<linearGradient id="paint0_linear" x1="32.0589" y1="8" x2="32.0589" y2="28.125" gradientUnits="userSpaceOnUse">
<stop stop-color="#EF8080"/>
<stop offset="1" stop-color="#F0145A"/>
</linearGradient>
<linearGradient id="paint1_linear" x1="32" y1="23.631" x2="32" y2="56" gradientUnits="userSpaceOnUse">
<stop stop-color="#EF8080"/>
<stop offset="1" stop-color="#F0145A"/>
</linearGradient>
</defs>
</svg>
